<svg width="48" height="48" viewBox="0 0 48 48" xmlns="http://www.w3.org/2000/svg">
  <defs>
    <radialGradient id="mysticalPurple48" cx="50%" cy="50%" r="50%">
      <stop offset="0%" style="stop-color:#E1BEE7;stop-opacity:1" />
      <stop offset="50%" style="stop-color:#8E24AA;stop-opacity:1" />
      <stop offset="100%" style="stop-color:#4A148C;stop-opacity:1" />
    </radialGradient>
    <radialGradient id="mysticalGold48" cx="50%" cy="50%" r="50%">
      <stop offset="0%" style="stop-color:#FFF9C4;stop-opacity:1" />
      <stop offset="50%" style="stop-color:#FFD54F;stop-opacity:1" />
      <stop offset="100%" style="stop-color:#FF8F00;stop-opacity:1" />
    </radialGradient>
    <radialGradient id="mysticalBg48" cx="50%" cy="50%" r="70%">
      <stop offset="0%" style="stop-color:#1A0033;stop-opacity:1" />
      <stop offset="100%" style="stop-color:#000000;stop-opacity:1" />
    </radialGradient>
  </defs>
  
  <!-- 神秘背景 -->
  <rect width="48" height="48" rx="12" fill="url(#mysticalBg48)"/>
  
  <!-- 神秘炼金师设计 -->
  <g transform="translate(24,24)">
    <!-- 魔法圆阵 -->
    <g stroke="url(#mysticalGold48)" stroke-width="0.5" fill="none" opacity="0.6">
      <circle cx="0" cy="0" r="18"/>
      <circle cx="0" cy="0" r="12"/>
    </g>
    
    <!-- 神秘炼金瓶 -->
    <g>
      <!-- 瓶身 -->
      <path d="M-4,-9 L4,-9 L5,-4 L5,7 Q5,9 3,9 L-3,9 Q-5,9 -5,7 L-5,-4 Z" fill="url(#mysticalPurple48)" opacity="0.8"/>
      
      <!-- 瓶颈 -->
      <rect x="-2" y="-12" width="4" height="3" rx="1" fill="url(#mysticalGold48)"/>
      
      <!-- 神秘药水 -->
      <path d="M-4,-2 L4,-2 L4,6 Q4,8 2,8 L-2,8 Q-4,8 -4,6 Z" fill="url(#mysticalGold48)" opacity="0.7">
        <animate attributeName="opacity" values="0.5;1;0.5" dur="3s" repeatCount="indefinite"/>
      </path>
    </g>
    
    <!-- 简化符文 -->
    <g stroke="url(#mysticalGold48)" stroke-width="0.5" fill="none" opacity="0.7">
      <!-- 五芒星 -->
      <polygon points="0,-10 3,-3 10,-3 5,1 8,8 0,4 -8,8 -5,1 -10,-3 -3,-3">
        <animateTransform attributeName="transform" type="rotate" values="0;360" dur="20s" repeatCount="indefinite"/>
      </polygon>
    </g>
    
    <!-- 魔法粒子 -->
    <g fill="url(#mysticalGold48)">
      <circle cx="10" cy="-10" r="0.5">
        <animate attributeName="opacity" values="0;1;0" dur="2s" repeatCount="indefinite"/>
      </circle>
      <circle cx="-12" cy="-7" r="0.5">
        <animate attributeName="opacity" values="0;1;0" dur="2.5s" repeatCount="indefinite"/>
      </circle>
      <circle cx="14" cy="3" r="0.5">
        <animate attributeName="opacity" values="0;1;0" dur="1.8s" repeatCount="indefinite"/>
      </circle>
      <circle cx="-10" cy="12" r="0.5">
        <animate attributeName="opacity" values="0;1;0" dur="2.2s" repeatCount="indefinite"/>
      </circle>
    </g>
  </g>
</svg>