<svg width="128" height="128" viewBox="0 0 128 128" xmlns="http://www.w3.org/2000/svg">
  <defs>
    <linearGradient id="bgGrad3" x1="0%" y1="0%" x2="100%" y2="100%">
      <stop offset="0%" style="stop-color:#2c3e50;stop-opacity:1" />
      <stop offset="100%" style="stop-color:#34495e;stop-opacity:1" />
    </linearGradient>
    <linearGradient id="goldGrad3" x1="0%" y1="0%" x2="100%" y2="100%">
      <stop offset="0%" style="stop-color:#f1c40f;stop-opacity:1" />
      <stop offset="100%" style="stop-color:#f39c12;stop-opacity:1" />
    </linearGradient>
    <linearGradient id="aiGrad" x1="0%" y1="0%" x2="100%" y2="100%">
      <stop offset="0%" style="stop-color:#3498db;stop-opacity:1" />
      <stop offset="100%" style="stop-color:#2980b9;stop-opacity:1" />
    </linearGradient>
  </defs>
  
  <!-- 背景圆角矩形 -->
  <rect x="8" y="8" width="112" height="112" rx="20" fill="url(#bgGrad3)"/>
  
  <!-- 主要图形容器 -->
  <g transform="translate(64,64)">
    <!-- 炼金术三角形 - 扁平化 -->
    <polygon points="0,-30 26,18 -26,18" fill="url(#goldGrad3)"/>
    
    <!-- AI芯片 - 简化设计 -->
    <rect x="-18" y="-6" width="36" height="12" rx="6" fill="url(#aiGrad)"/>
    
    <!-- 芯片细节 -->
    <rect x="-15" y="-3" width="30" height="6" rx="3" fill="#2c3e50"/>
    
    <!-- 连接引脚 -->
    <g fill="url(#aiGrad)">
      <rect x="-22" y="-2" width="4" height="4" rx="1"/>
      <rect x="18" y="-2" width="4" height="4" rx="1"/>
      <rect x="-2" y="-10" width="4" height="4" rx="1"/>
      <rect x="-2" y="6" width="4" height="4" rx="1"/>
    </g>
    
    <!-- 数据传输指示器 -->
    <g fill="url(#goldGrad3)">
      <circle cx="-12" cy="0" r="1.5"/>
      <circle cx="-8" cy="0" r="1"/>
      <circle cx="-4" cy="0" r="1.5"/>
      <circle cx="4" cy="0" r="1"/>
      <circle cx="8" cy="0" r="1.5"/>
      <circle cx="12" cy="0" r="1"/>
    </g>
  </g>
  
  <!-- 角落装饰 -->
  <g fill="url(#goldGrad3)" opacity="0.6">
    <rect x="16" y="16" width="8" height="2" rx="1"/>
    <rect x="16" y="20" width="12" height="2" rx="1"/>
    
    <rect x="104" y="16" width="8" height="2" rx="1"/>
    <rect x="100" y="20" width="12" height="2" rx="1"/>
    
    <rect x="16" y="106" width="12" height="2" rx="1"/>
    <rect x="16" y="110" width="8" height="2" rx="1"/>
    
    <rect x="100" y="106" width="12" height="2" rx="1"/>
    <rect x="104" y="110" width="8" height="2" rx="1"/>
  </g>
  
  <!-- 品牌标识点 -->
  <circle cx="64" cy="20" r="3" fill="url(#goldGrad3)" opacity="0.8"/>
  <circle cx="64" cy="108" r="3" fill="url(#goldGrad3)" opacity="0.8"/>
</svg>