<svg width="128" height="128" viewBox="0 0 128 128" xmlns="http://www.w3.org/2000/svg">
  <defs>
    <linearGradient id="premiumGold" x1="0%" y1="0%" x2="100%" y2="100%">
      <stop offset="0%" style="stop-color:#FFD700;stop-opacity:1" />
      <stop offset="50%" style="stop-color:#FFA000;stop-opacity:1" />
      <stop offset="100%" style="stop-color:#FF6F00;stop-opacity:1" />
    </linearGradient>
    <linearGradient id="premiumBlue" x1="0%" y1="0%" x2="100%" y2="100%">
      <stop offset="0%" style="stop-color:#1565C0;stop-opacity:1" />
      <stop offset="100%" style="stop-color:#0D47A1;stop-opacity:1" />
    </linearGradient>
    <linearGradient id="premiumDark" x1="0%" y1="0%" x2="100%" y2="100%">
      <stop offset="0%" style="stop-color:#263238;stop-opacity:1" />
      <stop offset="100%" style="stop-color:#37474F;stop-opacity:1" />
    </linearGradient>
  </defs>
  
  <!-- 背景 -->
  <rect width="128" height="128" rx="32" fill="url(#premiumDark)"/>
  
  <!-- 装饰性边框 -->
  <rect x="8" y="8" width="112" height="112" rx="24" fill="none" stroke="url(#premiumGold)" stroke-width="1" opacity="0.3"/>
  
  <!-- 主要设计元素 -->
  <g transform="translate(64,64)">
    <!-- 炼金术三角形 - 高级设计 -->
    <polygon points="0,-32 28,20 -28,20" fill="url(#premiumGold)"/>
    
    <!-- 内部装饰三角 -->
    <polygon points="0,-24 20,12 -20,12" fill="none" stroke="url(#premiumDark)" stroke-width="2"/>
    
    <!-- AI处理器 - 现代设计 -->
    <rect x="-24" y="-4" width="48" height="8" rx="4" fill="url(#premiumBlue)"/>
    
    <!-- 处理器细节 -->
    <rect x="-20" y="-2" width="40" height="4" rx="2" fill="#FFFFFF" opacity="0.9"/>
    
    <!-- 连接端口 -->
    <g fill="url(#premiumBlue)">
      <rect x="-28" y="-2" width="4" height="4" rx="2"/>
      <rect x="24" y="-2" width="4" height="4" rx="2"/>
    </g>
    
    <!-- 数据流指示器 -->
    <g fill="url(#premiumGold)" opacity="0.8">
      <circle cx="-16" cy="0" r="1"/>
      <circle cx="-12" cy="0" r="1.5"/>
      <circle cx="-8" cy="0" r="1"/>
      <circle cx="8" cy="0" r="1"/>
      <circle cx="12" cy="0" r="1.5"/>
      <circle cx="16" cy="0" r="1"/>
    </g>
    
    <!-- 能量环 -->
    <circle cx="0" cy="0" r="40" fill="none" stroke="url(#premiumGold)" stroke-width="1" opacity="0.2" stroke-dasharray="3,6"/>
  </g>
  
  <!-- 角落装饰元素 -->
  <g fill="url(#premiumGold)" opacity="0.4">
    <polygon points="20,20 24,16 28,20 24,24"/>
    <polygon points="100,20 104,16 108,20 104,24"/>
    <polygon points="20,108 24,104 28,108 24,112"/>
    <polygon points="100,108 104,104 108,108 104,112"/>
  </g>
  
  <!-- 品牌标识线 -->
  <g stroke="url(#premiumGold)" stroke-width="2" fill="none" opacity="0.6">
    <line x1="32" y1="16" x2="96" y2="16"/>
    <line x1="32" y1="112" x2="96" y2="112"/>
  </g>
</svg>