<svg width="128" height="128" viewBox="0 0 128 128" xmlns="http://www.w3.org/2000/svg">
  <defs>
    <linearGradient id="alchemistGold" x1="0%" y1="0%" x2="100%" y2="100%">
      <stop offset="0%" style="stop-color:#FFD700;stop-opacity:1" />
      <stop offset="50%" style="stop-color:#FFA000;stop-opacity:1" />
      <stop offset="100%" style="stop-color:#FF6F00;stop-opacity:1" />
    </linearGradient>
    <linearGradient id="alchemistPurple" x1="0%" y1="0%" x2="100%" y2="100%">
      <stop offset="0%" style="stop-color:#9C27B0;stop-opacity:1" />
      <stop offset="100%" style="stop-color:#6A1B9A;stop-opacity:1" />
    </linearGradient>
    <linearGradient id="alchemistBg" x1="0%" y1="0%" x2="100%" y2="100%">
      <stop offset="0%" style="stop-color:#1A1A1A;stop-opacity:1" />
      <stop offset="100%" style="stop-color:#2D2D2D;stop-opacity:1" />
    </linearGradient>
  </defs>
  
  <!-- 背景 -->
  <rect width="128" height="128" rx="24" fill="url(#alchemistBg)"/>
  
  <!-- 炼金师设计 -->
  <g transform="translate(64,64)">
    <!-- 炼金瓶主体 -->
    <path d="M-12,-35 L12,-35 L18,-20 L18,20 Q18,28 10,28 L-10,28 Q-18,28 -18,20 L-18,-20 Z" fill="url(#alchemistPurple)" opacity="0.8"/>
    
    <!-- 瓶颈 -->
    <rect x="-6" y="-45" width="12" height="10" rx="2" fill="url(#alchemistGold)"/>
    
    <!-- 瓶口 -->
    <rect x="-8" y="-48" width="16" height="3" rx="1" fill="url(#alchemistGold)"/>
    
    <!-- 神秘液体 -->
    <path d="M-14,-15 L14,-15 L14,18 Q14,24 8,24 L-8,24 Q-14,24 -14,18 Z" fill="url(#alchemistGold)" opacity="0.6">
      <animate attributeName="opacity" values="0.4;0.8;0.4" dur="3s" repeatCount="indefinite"/>
    </path>
    
    <!-- 气泡效果 -->
    <g fill="url(#alchemistGold)" opacity="0.8">
      <circle cx="-8" cy="10" r="1">
        <animate attributeName="cy" values="15;-10;15" dur="4s" repeatCount="indefinite"/>
        <animate attributeName="opacity" values="0;1;0" dur="4s" repeatCount="indefinite"/>
      </circle>
      <circle cx="5" cy="5" r="1.5">
        <animate attributeName="cy" values="20;-15;20" dur="5s" repeatCount="indefinite"/>
        <animate attributeName="opacity" values="0;1;0" dur="5s" repeatCount="indefinite"/>
      </circle>
      <circle cx="0" cy="15" r="1">
        <animate attributeName="cy" values="18;-12;18" dur="3.5s" repeatCount="indefinite"/>
        <animate attributeName="opacity" values="0;1;0" dur="3.5s" repeatCount="indefinite"/>
      </circle>
    </g>
    
    <!-- 炼金术符号 -->
    <g stroke="url(#alchemistGold)" stroke-width="2" fill="none" opacity="0.7">
      <!-- 外圈 -->
      <circle cx="0" cy="0" r="45"/>
      <!-- 炼金术三角 -->
      <polygon points="0,-50 15,-35 -15,-35" stroke-width="1"/>
      <!-- 十字 -->
      <line x1="0" y1="35" x2="0" y2="50"/>
      <line x1="-7" y1="42" x2="7" y2="42"/>
    </g>
    
    <!-- 魔法粒子 -->
    <g fill="url(#alchemistGold)" opacity="0.6">
      <circle cx="25" cy="-25" r="1">
        <animate attributeName="opacity" values="0.2;1;0.2" dur="2s" repeatCount="indefinite"/>
      </circle>
      <circle cx="-30" cy="-10" r="1">
        <animate attributeName="opacity" values="0.2;1;0.2" dur="2.5s" repeatCount="indefinite"/>
      </circle>
      <circle cx="35" cy="15" r="1">
        <animate attributeName="opacity" values="0.2;1;0.2" dur="1.8s" repeatCount="indefinite"/>
      </circle>
      <circle cx="-25" cy="30" r="1">
        <animate attributeName="opacity" values="0.2;1;0.2" dur="2.2s" repeatCount="indefinite"/>
      </circle>
    </g>
  </g>
  
  <!-- 装饰性炼金符号 -->
  <g stroke="url(#alchemistGold)" stroke-width="1" fill="none" opacity="0.3">
    <polygon points="20,20 24,16 28,20 24,24"/>
    <polygon points="100,20 104,16 108,20 104,24"/>
    <polygon points="20,108 24,104 28,108 24,112"/>
    <polygon points="100,108 104,104 108,108 104,112"/>
  </g>
</svg>