<svg width="128" height="128" viewBox="0 0 128 128" xmlns="http://www.w3.org/2000/svg">
  <defs>
    <radialGradient id="mysticalPurple" cx="50%" cy="50%" r="50%">
      <stop offset="0%" style="stop-color:#E1BEE7;stop-opacity:1" />
      <stop offset="50%" style="stop-color:#8E24AA;stop-opacity:1" />
      <stop offset="100%" style="stop-color:#4A148C;stop-opacity:1" />
    </radialGradient>
    <radialGradient id="mysticalGold" cx="50%" cy="50%" r="50%">
      <stop offset="0%" style="stop-color:#FFF9C4;stop-opacity:1" />
      <stop offset="50%" style="stop-color:#FFD54F;stop-opacity:1" />
      <stop offset="100%" style="stop-color:#FF8F00;stop-opacity:1" />
    </radialGradient>
    <radialGradient id="mysticalBg" cx="50%" cy="50%" r="70%">
      <stop offset="0%" style="stop-color:#1A0033;stop-opacity:1" />
      <stop offset="100%" style="stop-color:#000000;stop-opacity:1" />
    </radialGradient>
    <filter id="glow">
      <feGaussianBlur stdDeviation="3" result="coloredBlur"/>
      <feMerge> 
        <feMergeNode in="coloredBlur"/>
        <feMergeNode in="SourceGraphic"/>
      </feMerge>
    </filter>
  </defs>
  
  <!-- 神秘背景 -->
  <rect width="128" height="128" rx="32" fill="url(#mysticalBg)"/>
  
  <!-- 神秘炼金师设计 -->
  <g transform="translate(64,64)">
    <!-- 魔法圆阵 -->
    <g stroke="url(#mysticalGold)" stroke-width="1" fill="none" opacity="0.6" filter="url(#glow)">
      <circle cx="0" cy="0" r="50">
        <animate attributeName="stroke-opacity" values="0.3;0.8;0.3" dur="4s" repeatCount="indefinite"/>
      </circle>
      <circle cx="0" cy="0" r="35">
        <animate attributeName="stroke-opacity" values="0.8;0.3;0.8" dur="3s" repeatCount="indefinite"/>
      </circle>
      <circle cx="0" cy="0" r="20">
        <animate attributeName="stroke-opacity" values="0.3;0.8;0.3" dur="2s" repeatCount="indefinite"/>
      </circle>
    </g>
    
    <!-- 神秘炼金瓶 -->
    <g>
      <!-- 瓶身 -->
      <path d="M-10,-25 L10,-25 L15,-10 L15,20 Q15,25 10,25 L-10,25 Q-15,25 -15,20 L-15,-10 Z" fill="url(#mysticalPurple)" opacity="0.8" filter="url(#glow)"/>
      
      <!-- 瓶颈 -->
      <rect x="-5" y="-35" width="10" height="10" rx="2" fill="url(#mysticalGold)" filter="url(#glow)"/>
      
      <!-- 神秘药水 -->
      <path d="M-12,-5 L12,-5 L12,18 Q12,22 8,22 L-8,22 Q-12,22 -12,18 Z" fill="url(#mysticalGold)" opacity="0.7">
        <animate attributeName="opacity" values="0.5;1;0.5" dur="3s" repeatCount="indefinite"/>
      </path>
      
      <!-- 魔法烟雾 -->
      <g fill="url(#mysticalPurple)" opacity="0.6">
        <circle cx="-3" cy="-40" r="2">
          <animate attributeName="cy" values="-35;-55;-35" dur="4s" repeatCount="indefinite"/>
          <animate attributeName="opacity" values="0;0.8;0" dur="4s" repeatCount="indefinite"/>
          <animate attributeName="r" values="1;3;1" dur="4s" repeatCount="indefinite"/>
        </circle>
        <circle cx="3" cy="-42" r="1.5">
          <animate attributeName="cy" values="-37;-57;-37" dur="5s" repeatCount="indefinite"/>
          <animate attributeName="opacity" values="0;0.6;0" dur="5s" repeatCount="indefinite"/>
          <animate attributeName="r" values="0.5;2.5;0.5" dur="5s" repeatCount="indefinite"/>
        </circle>
        <circle cx="0" cy="-45" r="1">
          <animate attributeName="cy" values="-40;-60;-40" dur="3.5s" repeatCount="indefinite"/>
          <animate attributeName="opacity" values="0;0.7;0" dur="3.5s" repeatCount="indefinite"/>
          <animate attributeName="r" values="0.5;2;0.5" dur="3.5s" repeatCount="indefinite"/>
        </circle>
      </g>
    </g>
    
    <!-- 神秘符文 -->
    <g stroke="url(#mysticalGold)" stroke-width="1.5" fill="none" opacity="0.7" filter="url(#glow)">
      <!-- 五芒星 -->
      <g transform="rotate(0)">
        <polygon points="0,-30 9,-9 29,-9 15,3 23,24 0,12 -23,24 -15,3 -29,-9 -9,-9">
          <animateTransform attributeName="transform" type="rotate" values="0;360" dur="20s" repeatCount="indefinite"/>
        </polygon>
      </g>
      
      <!-- 内部符文 -->
      <g transform="rotate(0)">
        <line x1="-15" y1="-15" x2="15" y2="15">
          <animateTransform attributeName="transform" type="rotate" values="0;-360" dur="15s" repeatCount="indefinite"/>
        </line>
        <line x1="15" y1="-15" x2="-15" y2="15">
          <animateTransform attributeName="transform" type="rotate" values="0;-360" dur="15s" repeatCount="indefinite"/>
        </line>
        <line x1="0" y1="-20" x2="0" y2="20">
          <animateTransform attributeName="transform" type="rotate" values="0;-360" dur="15s" repeatCount="indefinite"/>
        </line>
        <line x1="-20" y1="0" x2="20" y2="0">
          <animateTransform attributeName="transform" type="rotate" values="0;-360" dur="15s" repeatCount="indefinite"/>
        </line>
      </g>
    </g>
    
    <!-- 魔法粒子 -->
    <g fill="url(#mysticalGold)" filter="url(#glow)">
      <circle cx="30" cy="-30" r="1">
        <animate attributeName="opacity" values="0;1;0" dur="2s" repeatCount="indefinite"/>
        <animateTransform attributeName="transform" type="rotate" values="0;360" dur="8s" repeatCount="indefinite"/>
      </circle>
      <circle cx="-35" cy="-20" r="1.5">
        <animate attributeName="opacity" values="0;1;0" dur="2.5s" repeatCount="indefinite"/>
        <animateTransform attributeName="transform" type="rotate" values="0;360" dur="10s" repeatCount="indefinite"/>
      </circle>
      <circle cx="40" cy="10" r="1">
        <animate attributeName="opacity" values="0;1;0" dur="1.8s" repeatCount="indefinite"/>
        <animateTransform attributeName="transform" type="rotate" values="0;360" dur="12s" repeatCount="indefinite"/>
      </circle>
      <circle cx="-30" cy="35" r="1.2">
        <animate attributeName="opacity" values="0;1;0" dur="2.2s" repeatCount="indefinite"/>
        <animateTransform attributeName="transform" type="rotate" values="0;360" dur="9s" repeatCount="indefinite"/>
      </circle>
    </g>
  </g>
  
  <!-- 边角神秘符号 -->
  <g fill="url(#mysticalPurple)" opacity="0.4">
    <polygon points="16,16 20,12 24,16 20,20"/>
    <polygon points="104,16 108,12 112,16 108,20"/>
    <polygon points="16,112 20,108 24,112 20,116"/>
    <polygon points="104,112 108,108 112,112 108,116"/>
  </g>
</svg>