<svg width="128" height="128" viewBox="0 0 128 128" xmlns="http://www.w3.org/2000/svg">
  <defs>
    <linearGradient id="modernGold" x1="0%" y1="0%" x2="100%" y2="100%">
      <stop offset="0%" style="stop-color:#F9A825;stop-opacity:1" />
      <stop offset="100%" style="stop-color:#F57F17;stop-opacity:1" />
    </linearGradient>
    <linearGradient id="modernBlue" x1="0%" y1="0%" x2="100%" y2="100%">
      <stop offset="0%" style="stop-color:#1E88E5;stop-opacity:1" />
      <stop offset="100%" style="stop-color:#1565C0;stop-opacity:1" />
    </linearGradient>
    <linearGradient id="modernBg" x1="0%" y1="0%" x2="100%" y2="100%">
      <stop offset="0%" style="stop-color:#212121;stop-opacity:1" />
      <stop offset="100%" style="stop-color:#424242;stop-opacity:1" />
    </linearGradient>
  </defs>
  
  <!-- 背景 -->
  <rect width="128" height="128" rx="28" fill="url(#modernBg)"/>
  
  <!-- 主要设计 -->
  <g transform="translate(64,64)">
    <!-- 现代几何三角 -->
    <path d="M0,-36 L32,24 L-32,24 Z" fill="url(#modernGold)"/>
    
    <!-- 内部切割线 -->
    <path d="M0,-28 L24,16 L-24,16 Z" fill="none" stroke="url(#modernBg)" stroke-width="3"/>
    
    <!-- AI芯片 - 现代设计 -->
    <rect x="-28" y="-6" width="56" height="12" rx="6" fill="url(#modernBlue)"/>
    
    <!-- 芯片表面 -->
    <rect x="-24" y="-3" width="48" height="6" rx="3" fill="#FFFFFF" opacity="0.95"/>
    
    <!-- 现代连接器 -->
    <g fill="url(#modernBlue)">
      <rect x="-34" y="-3" width="6" height="2" rx="1"/>
      <rect x="-34" y="1" width="6" height="2" rx="1"/>
      <rect x="28" y="-3" width="6" height="2" rx="1"/>
      <rect x="28" y="1" width="6" height="2" rx="1"/>
    </g>
    
    <!-- 数据流动画效果 -->
    <g fill="url(#modernGold)">
      <rect x="-20" y="-1" width="3" height="2" rx="1" opacity="0.8"/>
      <rect x="-14" y="-1" width="5" height="2" rx="1" opacity="1"/>
      <rect x="-6" y="-1" width="3" height="2" rx="1" opacity="0.6"/>
      <rect x="3" y="-1" width="5" height="2" rx="1" opacity="0.9"/>
      <rect x="11" y="-1" width="3" height="2" rx="1" opacity="0.7"/>
      <rect x="17" y="-1" width="3" height="2" rx="1" opacity="0.8"/>
    </g>
    
    <!-- 装饰性几何元素 -->
    <g stroke="url(#modernGold)" stroke-width="1" fill="none" opacity="0.4">
      <circle cx="0" cy="0" r="44"/>
      <polygon points="0,-44 15,-37 15,-51"/>
      <polygon points="38,22 31,7 45,7"/>
      <polygon points="-38,22 -31,7 -45,7"/>
    </g>
  </g>
  
  <!-- 现代装饰角 -->
  <g fill="url(#modernGold)" opacity="0.3">
    <rect x="16" y="16" width="12" height="2" rx="1"/>
    <rect x="16" y="20" width="8" height="2" rx="1"/>
    
    <rect x="100" y="16" width="12" height="2" rx="1"/>
    <rect x="104" y="20" width="8" height="2" rx="1"/>
    
    <rect x="16" y="106" width="8" height="2" rx="1"/>
    <rect x="16" y="110" width="12" height="2" rx="1"/>
    
    <rect x="104" y="106" width="8" height="2" rx="1"/>
    <rect x="100" y="110" width="12" height="2" rx="1"/>
  </g>
</svg>